<?xml version="1.0" encoding="UTF-8"?>
<svg id="Layer_2" data-name="Layer 2" xmlns="http://www.w3.org/2000/svg" viewBox="0 0 141.75 66.71">
  <defs>
    <style>
      .cls-1 {
        fill: #af3333;
      }

      .cls-1, .cls-2, .cls-3, .cls-4 {
        stroke-width: 0px;
      }

      .cls-2 {
        fill: #ccc;
      }

      .cls-3 {
        fill: #cc3e3e;
      }

      .cls-4 {
        fill: #e8e8e8;
      }
    </style>
  </defs>
  <g id="Casino_9" data-name="Casino 9">
    <g>
      <path class="cls-1" d="m141.75,22.24v22.24c0,6.13-7.93,11.69-20.75,15.71s-30.54,6.52-50.12,6.52c-9.79,0-19.11-.62-27.59-1.76-8.48-1.12-16.12-2.74-22.53-4.76C7.94,56.16,0,50.6,0,44.47v-22.24h20.75c12.82-4.02,30.54-6.52,50.12-6.52s37.28,2.5,50.11,6.52h20.77Z"/>
      <path class="cls-2" d="m20.76,31.09v29.09C7.94,56.16,0,50.6,0,44.47v-22.24l20.75,8.86Z"/>
      <path class="cls-2" d="m121,37.96v22.22c-12.82,4.02-30.54,6.52-50.12,6.52v-22.24l23.28-5.4,26.84-1.1Z"/>
      <g>
        <path class="cls-3" d="m141.75,22.23c0,6.14-7.93,11.7-20.75,15.72-12.82,4.02-30.54,6.51-50.12,6.51s-37.3-2.49-50.12-6.51h0C7.93,33.92,0,28.37,0,22.23S7.93,10.54,20.75,6.51C33.58,2.49,51.3,0,70.87,0s37.28,2.49,50.11,6.51h.01c12.82,4.03,20.75,9.59,20.75,15.72Z"/>
        <path class="cls-4" d="m70.86,22.23l-50.11,15.72C7.93,33.92,0,28.37,0,22.23h70.86Z"/>
        <path class="cls-4" d="m141.75,22.23h-70.87s50.11-15.72,50.11-15.72h.01c12.82,4.03,20.75,9.59,20.75,15.72Z"/>
        <path class="cls-4" d="m70.87,0v22.23h-.01L20.75,6.51C33.58,2.49,51.3,0,70.87,0Z"/>
        <path class="cls-4" d="m120.99,37.96c-12.82,4.02-30.54,6.51-50.12,6.51v-22.23l50.12,15.72Z"/>
        <ellipse class="cls-3" cx="70.87" cy="22.23" rx="39.52" ry="12.4"/>
      </g>
    </g>
  </g>
</svg>