<?xml version="1.0" encoding="utf-8"?>
<!-- Generator: Adobe Illustrator 25.0.0, SVG Export Plug-In . SVG Version: 6.00 Build 0)  -->
<svg version="1.1" xmlns="http://www.w3.org/2000/svg" xmlns:xlink="http://www.w3.org/1999/xlink" x="0px" y="0px"
	 viewBox="0 0 1393.02 1393.02" style="enable-background:new 0 0 1393.02 1393.02;" xml:space="preserve">
<style type="text/css">
	.st0{fill:#E8E8E8;}
	.st1{fill:#CCCCCC;}
	.st2{fill:#ADADAD;}
	.st3{fill:#545454;}
	.st4{fill:#CC3E3E;}
	.st5{fill:#AF3333;}
	.st6{fill:#F28686;}
	.st7{fill:#A05445;}
	.st8{fill:#FF9F1C;}
	.st9{fill:#FFB966;}
	.st10{fill:#8E4939;}
	.st11{fill:#E08517;}
	.st12{fill:#F2E3C0;}
	.st13{fill:#4C7C42;}
	.st14{fill:#D6642B;}
	.st15{fill:#EF7B3A;}
	.st16{fill:#2F6C7F;}
	.st17{fill:#41849E;}
	.st18{fill:#E2C896;}
	.st19{fill:#424242;}
</style>
<g id="Casino_1">
</g>
<g id="Casino_2">
</g>
<g id="Casino_3">
</g>
<g id="Casino_4">
</g>
<g id="Casino_5">
</g>
<g id="Casino_6">
</g>
<g id="Casino_7">
</g>
<g id="Casino_8">
</g>
<g id="Casino_9">
</g>
<g id="Casino_10">
	<g>
		<path class="st5" d="M314.8,925.2v93.09c0,25.66,33.2,48.95,86.89,65.79c53.69,16.84,127.87,27.3,209.83,27.3
			c40.98,0,80.02-2.61,115.53-7.36c35.51-4.68,67.49-11.49,94.31-19.94c53.69-16.84,86.89-40.13,86.89-65.79V925.2h-86.83
			c0,0,0,0-0.06,0c-53.69-16.84-127.87-27.3-209.83-27.3c-81.9,0-156.08,10.46-209.77,27.3h-0.06c0,0,0,0-0.06,0H314.8z"/>
		<path class="st1" d="M821.36,962.29v121.79c53.69-16.84,86.89-40.13,86.89-65.79V925.2L821.36,962.29z"/>
		<path class="st1" d="M401.69,991.05v93.03c53.69,16.84,127.87,27.3,209.83,27.3v-93.09l-97.47-22.62L401.69,991.05z"/>
		<g>
			<path class="st4" d="M314.83,925.2c0,25.69,33.2,48.97,86.89,65.83c53.69,16.84,127.87,27.26,209.83,27.26
				s156.14-10.41,209.83-27.26V991c53.69-16.86,86.89-40.13,86.89-65.81c0-25.69-33.2-48.97-86.89-65.83
				c-53.69-16.84-127.87-27.26-209.83-27.26c-81.9,0-156.08,10.41-209.77,27.26h-0.06C348.03,876.23,314.83,899.5,314.83,925.2z"/>
			<path class="st0" d="M611.62,925.2L821.39,991c53.69-16.86,86.89-40.13,86.89-65.81H611.62z"/>
			<path class="st0" d="M314.83,925.2h296.72v-0.02l-209.77-65.81h-0.06C348.03,876.23,314.83,899.5,314.83,925.2z"/>
			<path class="st0" d="M611.55,832.11v93.09h0.06l209.77-65.83C767.7,842.53,693.52,832.11,611.55,832.11z"/>
			<path class="st0" d="M401.72,991.02c53.69,16.84,127.87,27.26,209.83,27.26V925.2L401.72,991.02z"/>
			<ellipse class="st4" cx="611.57" cy="925.19" rx="165.47" ry="51.91"/>
		</g>
	</g>
	<g>
		<path class="st5" d="M908.28,832.12v93.09c0,25.66-33.2,48.95-86.89,65.79s-127.87,27.3-209.83,27.3
			c-40.98,0-80.02-2.61-115.53-7.36c-35.51-4.68-67.49-11.49-94.31-19.94c-53.69-16.84-86.89-40.13-86.89-65.79v-93.09h86.83
			c0,0,0,0,0.06,0c53.69-16.84,127.87-27.3,209.83-27.3c81.9,0,156.08,10.46,209.77,27.3h0.06c0,0,0,0,0.06,0H908.28z"/>
		<path class="st1" d="M401.72,869.21V991c-53.69-16.84-86.89-40.13-86.89-65.79v-93.09L401.72,869.21z"/>
		<path class="st1" d="M821.39,897.97V991c-53.69,16.84-127.87,27.3-209.83,27.3v-93.09l97.47-22.62L821.39,897.97z"/>
		<g>
			<path class="st4" d="M908.25,832.11c0,25.69-33.2,48.97-86.89,65.83c-53.69,16.84-127.87,27.26-209.83,27.26
				s-156.14-10.41-209.83-27.26v-0.02c-53.69-16.86-86.89-40.13-86.89-65.81c0-25.69,33.2-48.97,86.89-65.83
				c53.69-16.84,127.87-27.26,209.83-27.26c81.9,0,156.08,10.41,209.77,27.26h0.06C875.05,783.15,908.25,806.42,908.25,832.11z"/>
			<path class="st0" d="M611.47,832.11l-209.77,65.81c-53.69-16.86-86.89-40.13-86.89-65.81H611.47z"/>
			<path class="st0" d="M908.25,832.11H611.53v-0.02l209.77-65.81h0.06C875.05,783.15,908.25,806.42,908.25,832.11z"/>
			<path class="st0" d="M611.53,739.03v93.09h-0.06l-209.77-65.83C455.38,749.44,529.56,739.03,611.53,739.03z"/>
			<path class="st0" d="M821.36,897.94c-53.69,16.84-127.87,27.26-209.83,27.26v-93.09L821.36,897.94z"/>
			<ellipse class="st4" cx="611.52" cy="832.11" rx="165.47" ry="51.91"/>
		</g>
	</g>
	<g>
		<path class="st5" d="M314.8,739.04v93.09c0,25.66,33.2,48.95,86.89,65.79c53.69,16.84,127.87,27.3,209.83,27.3
			c40.98,0,80.02-2.61,115.53-7.36c35.51-4.68,67.49-11.49,94.31-19.94c53.69-16.84,86.89-40.13,86.89-65.79v-93.09h-86.83
			c0,0,0,0-0.06,0c-53.69-16.84-127.87-27.3-209.83-27.3c-81.9,0-156.08,10.46-209.77,27.3h-0.06c0,0,0,0-0.06,0H314.8z"/>
		<path class="st1" d="M821.36,776.13v121.79c53.69-16.84,86.89-40.13,86.89-65.79v-93.09L821.36,776.13z"/>
		<path class="st1" d="M401.69,804.89v93.03c53.69,16.84,127.87,27.3,209.83,27.3v-93.09l-97.47-22.62L401.69,804.89z"/>
		<g>
			<path class="st4" d="M314.83,739.03c0,25.69,33.2,48.97,86.89,65.83c53.69,16.84,127.87,27.26,209.83,27.26
				s156.14-10.41,209.83-27.26v-0.02c53.69-16.86,86.89-40.13,86.89-65.81c0-25.69-33.2-48.97-86.89-65.83
				c-53.69-16.84-127.87-27.26-209.83-27.26c-81.9,0-156.08,10.41-209.77,27.26h-0.06C348.03,690.07,314.83,713.34,314.83,739.03z"
				/>
			<path class="st0" d="M611.62,739.03l209.77,65.81c53.69-16.86,86.89-40.13,86.89-65.81H611.62z"/>
			<path class="st0" d="M314.83,739.03h296.72v-0.02l-209.77-65.81h-0.06C348.03,690.07,314.83,713.34,314.83,739.03z"/>
			<path class="st0" d="M611.55,645.95v93.09h0.06l209.77-65.83C767.7,656.36,693.52,645.95,611.55,645.95z"/>
			<path class="st0" d="M401.72,804.86c53.69,16.84,127.87,27.26,209.83,27.26v-93.09L401.72,804.86z"/>
			<ellipse class="st4" cx="611.57" cy="739.03" rx="165.47" ry="51.91"/>
		</g>
	</g>
	<g>
		<path class="st5" d="M908.28,645.95v93.09c0,25.66-33.2,48.95-86.89,65.79s-127.87,27.3-209.83,27.3
			c-40.98,0-80.02-2.61-115.53-7.36c-35.51-4.68-67.49-11.49-94.31-19.94c-53.69-16.84-86.89-40.13-86.89-65.79v-93.09h86.83
			c0,0,0,0,0.06,0c53.69-16.84,127.87-27.3,209.83-27.3c81.9,0,156.08,10.46,209.77,27.3h0.06c0,0,0,0,0.06,0H908.28z"/>
		<path class="st1" d="M401.72,683.04v121.79c-53.69-16.84-86.89-40.13-86.89-65.79v-93.09L401.72,683.04z"/>
		<path class="st1" d="M821.39,711.8v93.03c-53.69,16.84-127.87,27.3-209.83,27.3v-93.09l97.47-22.62L821.39,711.8z"/>
		<g>
			<path class="st4" d="M908.25,645.94c0,25.69-33.2,48.97-86.89,65.83c-53.69,16.84-127.87,27.26-209.83,27.26
				s-156.14-10.41-209.83-27.26v-0.02c-53.69-16.86-86.89-40.13-86.89-65.81c0-25.69,33.2-48.97,86.89-65.83
				c53.69-16.84,127.87-27.26,209.83-27.26c81.9,0,156.08,10.41,209.77,27.26h0.06C875.05,596.98,908.25,620.25,908.25,645.94z"/>
			<path class="st0" d="M611.47,645.94l-209.77,65.81c-53.69-16.86-86.89-40.13-86.89-65.81H611.47z"/>
			<path class="st0" d="M908.25,645.94H611.53v-0.02l209.77-65.81h0.06C875.05,596.98,908.25,620.25,908.25,645.94z"/>
			<path class="st0" d="M611.53,552.86v93.09h-0.06l-209.77-65.83C455.38,563.27,529.56,552.86,611.53,552.86z"/>
			<path class="st0" d="M821.36,711.77c-53.69,16.84-127.87,27.26-209.83,27.26v-93.09L821.36,711.77z"/>
			<ellipse class="st4" cx="611.52" cy="645.94" rx="165.47" ry="51.91"/>
		</g>
	</g>
	<g>
		<path class="st5" d="M314.8,552.84v93.09c0,25.66,33.2,48.95,86.89,65.79s127.87,27.3,209.83,27.3c40.98,0,80.02-2.61,115.53-7.36
			c35.51-4.68,67.49-11.49,94.31-19.94c53.69-16.84,86.89-40.13,86.89-65.79v-93.09h-86.83c0,0,0,0-0.06,0
			c-53.69-16.84-127.87-27.3-209.83-27.3c-81.9,0-156.08,10.46-209.77,27.3h-0.06c0,0,0,0-0.06,0H314.8z"/>
		<path class="st1" d="M821.36,589.93v121.79c53.69-16.84,86.89-40.13,86.89-65.79v-93.09L821.36,589.93z"/>
		<path class="st1" d="M401.69,618.69v93.03c53.69,16.84,127.87,27.3,209.83,27.3v-93.09l-97.47-22.62L401.69,618.69z"/>
		<g>
			<path class="st4" d="M314.83,552.83c0,25.69,33.2,48.97,86.89,65.83c53.69,16.84,127.87,27.26,209.83,27.26
				s156.14-10.41,209.83-27.26v-0.02c53.69-16.86,86.89-40.13,86.89-65.81c0-25.69-33.2-48.97-86.89-65.83
				c-53.69-16.84-127.87-27.26-209.83-27.26c-81.9,0-156.08,10.41-209.77,27.26h-0.06C348.03,503.87,314.83,527.14,314.83,552.83z"
				/>
			<path class="st0" d="M611.62,552.83l209.77,65.81c53.69-16.86,86.89-40.13,86.89-65.81H611.62z"/>
			<path class="st0" d="M314.83,552.83h296.72v-0.02L401.78,487h-0.06C348.03,503.87,314.83,527.14,314.83,552.83z"/>
			<path class="st0" d="M611.55,459.75v93.09h0.06L821.39,487C767.7,470.16,693.52,459.75,611.55,459.75z"/>
			<path class="st0" d="M401.72,618.66c53.69,16.84,127.87,27.26,209.83,27.26v-93.09L401.72,618.66z"/>
			<ellipse class="st4" cx="611.57" cy="552.83" rx="165.47" ry="51.91"/>
		</g>
	</g>
	<g>
		<path class="st5" d="M908.28,459.75v93.09c0,25.66-33.2,48.95-86.89,65.79s-127.87,27.3-209.83,27.3
			c-40.98,0-80.02-2.61-115.53-7.36c-35.51-4.68-67.49-11.49-94.31-19.94c-53.69-16.84-86.89-40.13-86.89-65.79v-93.09h86.83
			c0,0,0,0,0.06,0c53.69-16.84,127.87-27.3,209.83-27.3c81.9,0,156.08,10.46,209.77,27.3h0.06c0,0,0,0,0.06,0H908.28z"/>
		<path class="st1" d="M401.72,496.85v121.79c-53.69-16.84-86.89-40.13-86.89-65.79v-93.09L401.72,496.85z"/>
		<path class="st1" d="M821.39,525.61v93.03c-53.69,16.84-127.87,27.3-209.83,27.3v-93.09l97.47-22.62L821.39,525.61z"/>
		<g>
			<path class="st4" d="M908.25,459.75c0,25.69-33.2,48.97-86.89,65.83c-53.69,16.84-127.87,27.26-209.83,27.26
				s-156.14-10.41-209.83-27.26v-0.02C348,508.7,314.8,485.42,314.8,459.75c0-25.69,33.2-48.97,86.89-65.83
				c53.69-16.84,127.87-27.26,209.83-27.26c81.9,0,156.08,10.41,209.77,27.26h0.06C875.05,410.78,908.25,434.06,908.25,459.75z"/>
			<path class="st0" d="M611.47,459.75l-209.77,65.81C348,508.7,314.8,485.42,314.8,459.75H611.47z"/>
			<path class="st0" d="M908.25,459.75H611.53v-0.02l209.77-65.81h0.06C875.05,410.78,908.25,434.06,908.25,459.75z"/>
			<path class="st0" d="M611.53,366.66v93.09h-0.06l-209.77-65.83C455.38,377.08,529.56,366.66,611.53,366.66z"/>
			<path class="st0" d="M821.36,525.58c-53.69,16.84-127.87,27.26-209.83,27.26v-93.09L821.36,525.58z"/>
			<ellipse class="st4" cx="611.52" cy="459.75" rx="165.47" ry="51.91"/>
		</g>
	</g>
	<g>
		<path class="st5" d="M314.8,366.68v93.09c0,25.66,33.2,48.95,86.89,65.79c53.69,16.84,127.87,27.3,209.83,27.3
			c40.98,0,80.02-2.61,115.53-7.36c35.51-4.68,67.49-11.49,94.31-19.94c53.69-16.84,86.89-40.13,86.89-65.79v-93.09h-86.83
			c0,0,0,0-0.06,0c-53.69-16.84-127.87-27.3-209.83-27.3c-81.9,0-156.08,10.46-209.77,27.3h-0.06c0,0,0,0-0.06,0H314.8z"/>
		<path class="st1" d="M821.36,403.77v121.79c53.69-16.84,86.89-40.13,86.89-65.79v-93.09L821.36,403.77z"/>
		<path class="st1" d="M401.69,432.53v93.03c53.69,16.84,127.87,27.3,209.83,27.3v-93.09l-97.47-22.62L401.69,432.53z"/>
		<g>
			<path class="st4" d="M314.83,366.67c0,25.69,33.2,48.97,86.89,65.83c53.69,16.84,127.87,27.26,209.83,27.26
				s156.14-10.41,209.83-27.26v-0.02c53.69-16.86,86.89-40.13,86.89-65.81c0-25.69-33.2-48.97-86.89-65.83
				C767.7,284,693.52,273.58,611.55,273.58c-81.9,0-156.08,10.41-209.77,27.26h-0.06C348.03,317.7,314.83,340.98,314.83,366.67z"/>
			<path class="st0" d="M611.62,366.67l209.77,65.81c53.69-16.86,86.89-40.13,86.89-65.81H611.62z"/>
			<path class="st0" d="M314.83,366.67h296.72v-0.02l-209.77-65.81h-0.06C348.03,317.7,314.83,340.98,314.83,366.67z"/>
			<path class="st0" d="M611.55,273.58v93.09h0.06l209.77-65.83C767.7,284,693.52,273.58,611.55,273.58z"/>
			<path class="st0" d="M401.72,432.5c53.69,16.84,127.87,27.26,209.83,27.26v-93.09L401.72,432.5z"/>
			<ellipse class="st4" cx="611.57" cy="366.67" rx="165.47" ry="51.91"/>
		</g>
	</g>
	<g>
		<path class="st5" d="M908.28,273.58v93.09c0,25.66-33.2,48.95-86.89,65.79s-127.87,27.3-209.83,27.3
			c-40.98,0-80.02-2.61-115.53-7.36c-35.51-4.68-67.49-11.49-94.31-19.94c-53.69-16.84-86.89-40.13-86.89-65.79v-93.09h86.83
			c0,0,0,0,0.06,0c53.69-16.84,127.87-27.3,209.83-27.3c81.9,0,156.08,10.46,209.77,27.3h0.06c0,0,0,0,0.06,0H908.28z"/>
		<path class="st1" d="M401.72,310.67v121.79c-53.69-16.84-86.89-40.13-86.89-65.79v-93.09L401.72,310.67z"/>
		<path class="st1" d="M821.39,339.44v93.03c-53.69,16.84-127.87,27.3-209.83,27.3v-93.09l97.47-22.62L821.39,339.44z"/>
		<g>
			<path class="st4" d="M908.25,273.58c0,25.69-33.2,48.97-86.89,65.83c-53.69,16.84-127.87,27.26-209.83,27.26
				s-156.14-10.41-209.83-27.26v-0.02c-53.69-16.86-86.89-40.13-86.89-65.81c0-25.69,33.2-48.97,86.89-65.83
				c53.69-16.84,127.87-27.26,209.83-27.26c81.9,0,156.08,10.41,209.77,27.26h0.06C875.05,224.61,908.25,247.88,908.25,273.58z"/>
			<path class="st0" d="M611.47,273.58l-209.77,65.81c-53.69-16.86-86.89-40.13-86.89-65.81H611.47z"/>
			<path class="st0" d="M908.25,273.58H611.53v-0.02l209.77-65.81h0.06C875.05,224.61,908.25,247.88,908.25,273.58z"/>
			<path class="st0" d="M611.53,180.49v93.09h-0.06l-209.77-65.83C455.38,190.91,529.56,180.49,611.53,180.49z"/>
			<path class="st0" d="M821.36,339.41c-53.69,16.84-127.87,27.26-209.83,27.26v-93.09L821.36,339.41z"/>
			<ellipse class="st4" cx="611.52" cy="273.58" rx="165.47" ry="51.91"/>
		</g>
	</g>
	<g>
		<path class="st5" d="M1205.03,1112.63v93.09c0,25.66-33.2,48.95-86.89,65.79c-53.69,16.84-127.87,27.3-209.83,27.3
			c-40.98,0-80.02-2.61-115.53-7.36c-35.51-4.68-67.49-11.49-94.31-19.94c-53.69-16.84-86.89-40.13-86.89-65.79v-93.09h86.83
			c0,0,0,0,0.06,0c53.69-16.84,127.87-27.3,209.83-27.3c81.9,0,156.08,10.46,209.77,27.3h0.06c0,0,0,0,0.06,0H1205.03z"/>
		<path class="st1" d="M698.47,1149.72v121.79c-53.69-16.84-86.89-40.13-86.89-65.79v-93.09L698.47,1149.72z"/>
		<path class="st1" d="M1118.14,1178.48v93.03c-53.69,16.84-127.87,27.3-209.83,27.3v-93.09l97.47-22.62L1118.14,1178.48z"/>
		<g>
			<path class="st4" d="M1205,1112.62c0,25.69-33.2,48.97-86.89,65.83c-53.69,16.84-127.87,27.26-209.83,27.26
				s-156.14-10.41-209.83-27.26v-0.02c-53.69-16.86-86.89-40.13-86.89-65.81c0-25.69,33.2-48.97,86.89-65.83
				c53.69-16.84,127.87-27.26,209.83-27.26c81.9,0,156.08,10.41,209.77,27.26h0.06C1171.8,1063.66,1205,1086.93,1205,1112.62z"/>
			<path class="st0" d="M908.22,1112.62l-209.77,65.81c-53.69-16.86-86.89-40.13-86.89-65.81H908.22z"/>
			<path class="st0" d="M1205,1112.62H908.28v-0.02l209.77-65.81h0.06C1171.8,1063.66,1205,1086.93,1205,1112.62z"/>
			<path class="st0" d="M908.28,1019.54v93.09h-0.06l-209.77-65.83C752.13,1029.95,826.31,1019.54,908.28,1019.54z"/>
			<path class="st0" d="M1118.11,1178.45c-53.69,16.84-127.87,27.26-209.83,27.26v-93.09L1118.11,1178.45z"/>
			<ellipse class="st4" cx="908.27" cy="1112.62" rx="165.47" ry="51.91"/>
		</g>
	</g>
	<g>
		<path class="st5" d="M314.88,187.3v93.09c0,25.66,33.2,48.95,86.89,65.79s127.87,27.3,209.83,27.3c40.98,0,80.02-2.61,115.53-7.36
			c35.51-4.68,67.49-11.49,94.31-19.94c53.69-16.84,86.89-40.13,86.89-65.79V187.3H821.5c0,0,0,0-0.06,0
			C767.75,170.46,693.57,160,611.6,160c-81.9,0-156.08,10.46-209.77,27.3h-0.06c0,0,0,0-0.06,0H314.88z"/>
		<path class="st1" d="M821.44,224.39v121.79c53.69-16.84,86.89-40.13,86.89-65.79V187.3L821.44,224.39z"/>
		<path class="st1" d="M401.77,253.15v93.03c53.69,16.84,127.87,27.3,209.83,27.3v-93.09l-97.47-22.62L401.77,253.15z"/>
		<g>
			<path class="st4" d="M314.91,187.29c0,25.69,33.2,48.97,86.89,65.83c53.69,16.84,127.87,27.26,209.83,27.26
				s156.14-10.41,209.83-27.26v-0.02c53.69-16.86,86.89-40.13,86.89-65.81c0-25.69-33.2-48.97-86.89-65.83
				c-53.69-16.84-127.87-27.26-209.83-27.26c-81.9,0-156.08,10.41-209.77,27.26h-0.06C348.1,138.33,314.91,161.6,314.91,187.29z"/>
			<path class="st0" d="M611.69,187.29l209.77,65.81c53.69-16.86,86.89-40.13,86.89-65.81H611.69z"/>
			<path class="st0" d="M314.91,187.29h296.72v-0.02l-209.77-65.81h-0.06C348.1,138.33,314.91,161.6,314.91,187.29z"/>
			<path class="st0" d="M611.63,94.21v93.09h0.06l209.77-65.83C767.77,104.62,693.59,94.21,611.63,94.21z"/>
			<path class="st0" d="M401.79,253.12c53.69,16.84,127.87,27.26,209.83,27.26v-93.09L401.79,253.12z"/>
			<ellipse class="st4" cx="611.64" cy="187.29" rx="165.47" ry="51.91"/>
		</g>
	</g>
</g>
<g id="Casino_11">
</g>
<g id="Casino_12">
</g>
<g id="Casino_13">
</g>
<g id="Casino_14">
</g>
<g id="Casino_15">
</g>
<g id="Casino_16">
</g>
<g id="Casino_17">
</g>
<g id="Casino_18">
</g>
<g id="Casino_19">
</g>
<g id="Casino_20">
</g>
<g id="Casino_21">
</g>
<g id="Casino_22">
</g>
<g id="Casino_23">
</g>
<g id="Casino_24">
</g>
<g id="Casino_25">
</g>
<g id="Casino_26">
</g>
</svg>
